<?xml version="1.0" encoding="utf-8"?>
<!-- Generator: Adobe Illustrator 17.0.0, SVG Export Plug-In . SVG Version: 6.00 Build 0)  -->
<!DOCTYPE svg PUBLIC "-//W3C//DTD SVG 1.1//EN" "http://www.w3.org/Graphics/SVG/1.1/DTD/svg11.dtd">
<svg version="1.1" id="Layer_1" xmlns="http://www.w3.org/2000/svg" xmlns:xlink="http://www.w3.org/1999/xlink" x="0px" y="0px"
	 width="110.077px" height="111.858px" viewBox="0 0 110.077 111.858" enable-background="new 0 0 110.077 111.858"
	 xml:space="preserve">
<polygon fill="#5184F6" points="68.244,0 13.205,16.528 0,72.458 41.536,111.577 41.833,111.858 96.48,95.447 96.872,95.33 
	109.982,39.798 110.077,39.4 "/>
<g>
	<g>
		<path fill="#FFFFFF" d="M57.854,12.313c-4.462,5.463-5.129,10.902-4.884,17.788c0.292,8.193-0.821,14.725-5.975,21.358
			c-1.058,1.361,4.757,3.074,5.794,1.74c4.308-5.544,6.29-11.144,6.413-18.19c0.14-7.977-0.995-14.294,4.446-20.956
			C64.718,12.743,58.935,10.99,57.854,12.313L57.854,12.313z"/>
	</g>
	<g>
		<path fill="#FFFFFF" d="M40.316,17.942c-4.462,5.463-5.129,10.902-4.884,17.788c0.292,8.193-0.821,14.725-5.975,21.358
			c-1.058,1.361,4.757,3.074,5.794,1.74c4.308-5.544,6.29-11.144,6.413-18.19c0.14-7.977-0.995-14.294,4.446-20.956
			C47.18,18.371,41.396,16.618,40.316,17.942L40.316,17.942z"/>
	</g>
	<g>
		<path fill="#FFFFFF" d="M22.362,23.57c-4.462,5.463-5.129,10.902-4.884,17.788c0.292,8.193-0.821,14.725-5.975,21.358
			c-1.058,1.361,4.757,3.074,5.794,1.74c4.308-5.544,6.29-11.144,6.413-18.19c0.14-7.977-0.995-14.294,4.446-20.956
			C29.226,23.999,23.443,22.246,22.362,23.57L22.362,23.57z"/>
	</g>
</g>
</svg>
